<?xml version="1.0" encoding="utf-8"?>
<!-- Generator: Adobe Illustrator 25.4.1, SVG Export Plug-In . SVG Version: 6.00 Build 0)  -->
<svg version="1.1" id="Layer_1" xmlns="http://www.w3.org/2000/svg" xmlns:xlink="http://www.w3.org/1999/xlink" x="0px" y="0px"
	 viewBox="0 0 21 24" style="enable-background:new 0 0 21 24;" xml:space="preserve">
<style type="text/css">
	.st0{fill:#FFFFFF;}
</style>
<path class="st0" d="M17.111,0c-2.139,0-3.889,1.742-3.889,3.871c0,0.435,0.072,0.855,0.207,1.246l-6.66,4.306
	c-0.713-0.788-1.738-1.294-2.88-1.294C1.75,8.129,0,9.871,0,12s1.75,3.871,3.889,3.871c1.147,0,2.179-0.501,2.892-1.294l6.648,4.306
	c-0.137,0.394-0.207,0.807-0.207,1.246c0,2.129,1.75,3.871,3.889,3.871S21,22.258,21,20.129s-1.75-3.871-3.889-3.871
	c-1.142,0-2.167,0.507-2.88,1.294l-6.66-4.306C7.706,12.855,7.778,12.435,7.778,12c0-0.439-0.07-0.852-0.207-1.246l6.648-4.306
	c0.713,0.793,1.745,1.294,2.892,1.294C19.25,7.742,21,6,21,3.871S19.25,0,17.111,0L17.111,0z"/>
</svg>
