<?xml version="1.0" encoding="utf-8"?>
<!-- Generator: Adobe Illustrator 25.3.1, SVG Export Plug-In . SVG Version: 6.00 Build 0)  -->
<svg version="1.1" id="Layer_1" xmlns="http://www.w3.org/2000/svg" xmlns:xlink="http://www.w3.org/1999/xlink" x="0px" y="0px"
	 viewBox="0 0 20.417 20.002" style="enable-background:new 0 0 20.417 20.002;" xml:space="preserve">
<style type="text/css">
	.st0{fill:#626E7C;}
</style>
<path class="st0" d="M20.404,18.499l-0.084,0.934c-0.028,0.325-0.302,0.569-0.621,0.569c-0.019,0-0.038-0.001-0.057-0.003
	c-0.344-0.03-0.598-0.334-0.566-0.678l0.084-0.935c0.084-0.938-0.544-1.798-1.462-2.001l-3.042-0.677
	c-0.286-0.063-0.489-0.317-0.489-0.61v-4.034c0-0.517-0.421-0.938-0.938-0.938s-0.938,0.42-0.938,0.938v6.917
	c0,0.236-0.134,0.453-0.346,0.559c-0.21,0.107-0.465,0.085-0.654-0.059l-1.231-0.924c-0.258-0.193-0.623-0.166-0.852,0.062
	c-0.228,0.228-0.254,0.594-0.061,0.852l0.395,0.527c0.207,0.276,0.151,0.668-0.125,0.875c-0.277,0.206-0.668,0.151-0.875-0.125
	l-0.395-0.527c-0.564-0.752-0.488-1.82,0.177-2.486c0.665-0.664,1.731-0.741,2.486-0.177l0.231,0.173v-5.666
	c0-1.206,0.981-2.188,2.188-2.188s2.188,0.981,2.188,2.188v3.533l2.553,0.567C19.498,15.505,20.545,16.938,20.404,18.499z
	 M5.665,16.811c-2.973-1.354-4.499-3.992-4.411-7.629c0.104-4.343,3.586-7.826,7.93-7.929c4.35-0.104,7.988,3.211,8.297,7.544
	c0.024,0.345,0.328,0.599,0.668,0.579c0.344-0.025,0.604-0.324,0.578-0.668c-0.357-5-4.594-8.825-9.573-8.705
	C4.142,0.122,0.123,4.14,0.004,9.151c-0.099,4.118,1.728,7.242,5.144,8.796c0.084,0.039,0.172,0.057,0.258,0.057
	c0.237,0,0.464-0.136,0.569-0.366C6.118,17.324,5.979,16.953,5.665,16.811z M8.081,14.245c0.129-0.32-0.025-0.685-0.345-0.813
	c-1.843-0.746-2.953-2.644-2.698-4.615c0.254-1.972,1.809-3.526,3.78-3.78c1.966-0.257,3.869,0.856,4.615,2.699
	c0.129,0.32,0.491,0.473,0.813,0.345c0.32-0.13,0.475-0.494,0.345-0.814c-0.958-2.369-3.396-3.793-5.932-3.471
	c-2.536,0.326-4.535,2.325-4.861,4.86c-0.328,2.535,1.099,4.975,3.469,5.933c0.077,0.031,0.156,0.046,0.234,0.046
	C7.748,14.636,7.982,14.489,8.081,14.245z"/>
</svg>
