<?xml version="1.0" encoding="utf-8"?>
<!-- Generator: Adobe Illustrator 25.3.1, SVG Export Plug-In . SVG Version: 6.00 Build 0)  -->
<svg version="1.1" id="Layer_1" xmlns="http://www.w3.org/2000/svg" xmlns:xlink="http://www.w3.org/1999/xlink" x="0px" y="0px"
	 viewBox="0 0 20.002 20" style="enable-background:new 0 0 20.002 20;" xml:space="preserve">
<style type="text/css">
	.st0{fill:#626E7C;}
</style>
<path class="st0" d="M16.056,8.658c-0.019-0.011-0.037-0.021-0.055-0.032l1.169-2c0.197-0.336,0.197-0.754-0.004-1.096
	C16.968,5.201,16.617,5,16.225,5H11.28c-0.357-0.018-0.747,0.201-0.949,0.538c-0.196,0.335-0.196,0.752,0,1.088l1.15,1.967
	c-1.312,0.698-3.98,2.248-3.98,5.739c0,3.178,2.711,5.667,6.171,5.667c3.49,0,6.329-2.542,6.329-5.667
	C20,10.963,17.336,9.406,16.056,8.658z M13.673,18.75c-2.76,0-4.921-1.94-4.921-4.417c0-2.888,2.346-4.125,3.474-4.719
	c0.193-0.102,0.351-0.186,0.457-0.254c0.282-0.181,0.372-0.553,0.202-0.842L11.559,6.25h4.384l-1.326,2.268
	c-0.159,0.273-0.09,0.623,0.163,0.813c0.147,0.112,0.371,0.246,0.646,0.406c1.244,0.727,3.326,1.943,3.327,4.596
	C18.752,16.769,16.474,18.75,13.673,18.75z M5.625,13.75c0,0.345-0.28,0.625-0.625,0.625H1.567c-0.001,0-0.002,0-0.003,0
	c-0.855,0-1.557-0.695-1.564-1.553V1.552C0.006,0.693,0.705,0,1.559,0c0.002,0,0.004,0,0.006,0h13.743c0.001,0,0.003,0,0.005,0
	c0.853,0,1.555,0.695,1.562,1.551v1.574c0,0.345-0.28,0.625-0.625,0.625s-0.625-0.28-0.625-0.625V1.557
	C15.623,1.39,15.482,1.25,15.311,1.25c-0.001,0-0.001,0-0.001,0H1.562c0,0-0.001,0-0.001,0c-0.172,0-0.31,0.137-0.312,0.307v1.568
	h8.125C9.72,3.125,10,3.405,10,3.75S9.72,4.375,9.375,4.375H1.25v8.442c0.001,0.167,0.143,0.308,0.315,0.308c0,0,0,0,0.001,0H5
	C5.345,13.125,5.625,13.405,5.625,13.75z M16.094,15.352c0,0.895-0.719,1.62-1.719,1.839V17.5c0,0.345-0.28,0.625-0.625,0.625
	s-0.625-0.28-0.625-0.625v-0.295c-0.554-0.126-1.064-0.444-1.421-0.915c-0.209-0.275-0.154-0.667,0.12-0.876
	c0.276-0.208,0.667-0.154,0.876,0.12c0.241,0.318,0.637,0.486,1.024,0.482c0.67-0.001,1.119-0.351,1.119-0.665
	s-0.449-0.664-1.094-0.664c-1.314,0-2.344-0.841-2.344-1.915c0-0.895,0.719-1.62,1.719-1.839v-0.308c0-0.345,0.28-0.625,0.625-0.625
	s0.625,0.28,0.625,0.625v0.295c0.551,0.127,1.063,0.445,1.42,0.915c0.209,0.274,0.156,0.666-0.119,0.875
	c-0.271,0.209-0.665,0.157-0.875-0.119c-0.242-0.318-0.604-0.479-1.025-0.483c-0.67,0.001-1.119,0.351-1.119,0.665
	s0.449,0.665,1.094,0.665C15.064,13.438,16.094,14.278,16.094,15.352z"/>
</svg>
