<?xml version="1.0" encoding="utf-8"?>
<!-- Generator: Adobe Illustrator 25.3.1, SVG Export Plug-In . SVG Version: 6.00 Build 0)  -->
<svg version="1.1" id="Layer_1" xmlns="http://www.w3.org/2000/svg" xmlns:xlink="http://www.w3.org/1999/xlink" x="0px" y="0px"
	 viewBox="0 0 20 19.25" style="enable-background:new 0 0 20 19.25;" xml:space="preserve">
<style type="text/css">
	.st0{fill:#626E7C;}
</style>
<path class="st0" d="M20,3.125C20,1.402,18.598,0,16.875,0H3.125C1.402,0,0,1.402,0,3.125v9.399c0,0.023,0.006,0.044,0.007,0.067
	C0.006,12.603,0,12.613,0,12.625c0,0.036,0.015,0.067,0.02,0.101c0.106,1.627,1.45,2.924,3.105,2.924h4.257L6.974,18H5.625
	C5.28,18,5,18.28,5,18.625s0.28,0.625,0.625,0.625H7.5h5h1.875c0.345,0,0.625-0.28,0.625-0.625S14.72,18,14.375,18h-1.349
	l-0.408-2.351h4.257c1.654,0,2.999-1.296,3.105-2.924c0.006-0.034,0.02-0.065,0.02-0.101c0-0.012-0.006-0.022-0.007-0.034
	c0-0.023,0.007-0.044,0.007-0.067V3.125z M3.125,1.25h13.75c1.034,0,1.875,0.841,1.875,1.875V12H1.25V9.292L4.384,6.3L6,7.852
	c0.471,0.451,1.278,0.452,1.749,0l3.308-3.176c0.249-0.239,0.257-0.634,0.019-0.883c-0.24-0.25-0.636-0.258-0.884-0.018L6.866,6.95
	L5.25,5.398c-0.471-0.451-1.278-0.452-1.749,0l-2.25,2.16V3.125C1.25,2.091,2.091,1.25,3.125,1.25z M11.757,18H8.243l0.408-2.351
	h2.699L11.757,18z M16.875,14.399h-5h-3.75h-5c-0.777,0-1.444-0.475-1.729-1.149h17.207C18.32,13.925,17.652,14.399,16.875,14.399z
	 M12.219,4.972C12.368,4.236,13,3.709,13.75,3.631V3.625C13.75,3.28,14.03,3,14.375,3c0.336,0,0.606,0.267,0.62,0.6h0.63
	c0.345,0,0.625,0.28,0.625,0.625S15.97,4.85,15.625,4.85h-1.694H13.93c-0.239,0-0.442,0.155-0.486,0.369
	c-0.041,0.204,0.083,0.411,0.296,0.493l1.719,0.66c0.782,0.302,1.231,1.104,1.069,1.907C16.38,9.012,15.749,9.538,15,9.618v0.007
	c0,0.345-0.28,0.625-0.625,0.625c-0.336,0-0.606-0.267-0.62-0.6h-0.63c-0.345,0-0.625-0.28-0.625-0.625S12.78,8.4,13.125,8.4h1.692
	c0.238,0,0.442-0.155,0.485-0.368c0.041-0.205-0.082-0.412-0.293-0.494l-1.719-0.659C12.508,6.578,12.057,5.776,12.219,4.972z"/>
</svg>
