<?xml version="1.0" encoding="utf-8"?>
<!-- Generator: Adobe Illustrator 25.3.1, SVG Export Plug-In . SVG Version: 6.00 Build 0)  -->
<svg version="1.1" id="Layer_1" xmlns="http://www.w3.org/2000/svg" xmlns:xlink="http://www.w3.org/1999/xlink" x="0px" y="0px"
	 viewBox="0 0 21.337 20.617" style="enable-background:new 0 0 21.337 20.617;" xml:space="preserve">
<style type="text/css">
	.st0{fill:#626E7C;}
</style>
<path class="st0" d="M9.329,20.617c-0.192,0-0.385-0.041-0.564-0.125c-0.468-0.22-0.77-0.695-0.77-1.211v-8.266
	c-4.408-1.14-7.662-5.008-7.991-9.587c-0.024-0.372,0.106-0.737,0.358-1.005C0.612,0.154,0.968,0,1.336,0H20
	c0.37,0.001,0.725,0.155,0.976,0.424c0.251,0.267,0.382,0.631,0.358,0.999c0,0.002,0,0.003-0.001,0.005
	c-0.329,4.581-3.584,8.449-7.994,9.588v6.039c0,0.4-0.177,0.775-0.485,1.029l-2.668,2.224C9.942,20.512,9.636,20.617,9.329,20.617z
	 M1.336,1.336C1.635,5.5,4.703,8.994,8.796,9.83c0.311,0.064,0.534,0.337,0.534,0.655v8.796l2.672-2.227l0.001-6.57
	c0-0.317,0.224-0.591,0.534-0.655C16.631,8.996,19.699,5.503,20,1.336l0,0c-0.001,0-0.001,0-0.002,0H1.336z M20.667,1.38h0.01
	H20.667z"/>
</svg>
