<?xml version="1.0" encoding="utf-8"?>
<!-- Generator: Adobe Illustrator 25.3.1, SVG Export Plug-In . SVG Version: 6.00 Build 0)  -->
<svg version="1.1" id="Layer_1" xmlns="http://www.w3.org/2000/svg" xmlns:xlink="http://www.w3.org/1999/xlink" x="0px" y="0px"
	 viewBox="0 0 19.998 20" style="enable-background:new 0 0 19.998 20;" xml:space="preserve">
<style type="text/css">
	.st0{fill:#626E7C;}
</style>
<path class="st0" d="M19.998,5.625v12.5c0,1.034-0.841,1.875-1.875,1.875H6.873c-1.034,0-1.875-0.841-1.875-1.875v-5
	c0-0.345,0.28-0.625,0.625-0.625s0.625,0.28,0.625,0.625v5c0,0.345,0.28,0.625,0.625,0.625h11.25c0.345,0,0.625-0.28,0.625-0.625
	v-12.5C18.748,5.28,18.467,5,18.123,5h-6.25c-0.345,0-0.625-0.28-0.625-0.625s0.28-0.625,0.625-0.625h6.25
	C19.157,3.75,19.998,4.591,19.998,5.625z M12.5,7.916c-0.345,0-0.625,0.28-0.625,0.625v0.055c-0.804,0.067-1.48,0.657-1.635,1.46
	c-0.165,0.854,0.302,1.709,1.11,2.033l1.835,0.733c0.251,0.101,0.396,0.368,0.346,0.635c-0.052,0.267-0.286,0.46-0.558,0.46h-1.806
	c-0.345,0-0.625,0.28-0.625,0.625s0.28,0.625,0.625,0.625h0.708v0.042c0,0.345,0.28,0.625,0.625,0.625s0.625-0.28,0.625-0.625
	v-0.055c0.802-0.068,1.478-0.657,1.632-1.459c0.165-0.854-0.301-1.708-1.107-2.032l-1.835-0.733
	c-0.253-0.102-0.398-0.369-0.348-0.636c0.052-0.267,0.286-0.46,0.559-0.46c0.001,0,0.001,0,0.001,0h1.808
	c0.345,0,0.625-0.28,0.625-0.625s-0.28-0.625-0.625-0.625h-0.709V8.541C13.125,8.195,12.844,7.916,12.5,7.916z M7.317,8.567
	l-2.5,2.5c-0.12,0.119-0.279,0.183-0.442,0.183c-0.081,0-0.162-0.016-0.239-0.048c-0.233-0.097-0.386-0.324-0.386-0.577V5.884
	L0.443,2.576C0.009,2.143-0.119,1.497,0.116,0.931C0.351,0.366,0.898,0,1.51,0h8.231c0.612,0,1.159,0.366,1.394,0.932
	c0.234,0.565,0.106,1.211-0.327,1.645L7.501,5.884v2.241C7.501,8.291,7.435,8.45,7.317,8.567z M6.434,5.183l3.491-3.491
	c0.074-0.074,0.096-0.185,0.056-0.282C9.94,1.313,9.846,1.25,9.741,1.25H1.51c-0.105,0-0.199,0.063-0.239,0.16
	C1.231,1.507,1.252,1.618,1.327,1.692l3.491,3.491C4.935,5.3,5.001,5.459,5.001,5.625v3.491l1.25-1.25V5.625
	C6.251,5.459,6.316,5.3,6.434,5.183z"/>
</svg>
