<?xml version="1.0" encoding="utf-8"?>
<!-- Generator: Adobe Illustrator 25.3.1, SVG Export Plug-In . SVG Version: 6.00 Build 0)  -->
<svg version="1.1" id="Layer_1" xmlns="http://www.w3.org/2000/svg" xmlns:xlink="http://www.w3.org/1999/xlink" x="0px" y="0px"
	 viewBox="0 0 20 20" style="enable-background:new 0 0 20 20;" xml:space="preserve">
<style type="text/css">
	.st0{fill:#626E7C;}
</style>
<path class="st0" d="M16.528,16.087c-0.145,0.757-0.777,1.299-1.528,1.381V17.5c0,0.345-0.28,0.625-0.625,0.625
	s-0.625-0.28-0.625-0.625h-0.625c-0.345,0-0.625-0.28-0.625-0.625s0.28-0.625,0.625-0.625h1.692c0.235,0,0.439-0.168,0.484-0.399
	c0.044-0.232-0.082-0.464-0.301-0.552l-1.719-0.688c-0.774-0.31-1.222-1.129-1.063-1.948c0.145-0.758,0.778-1.301,1.531-1.381V11.25
	c0-0.345,0.28-0.625,0.625-0.625S15,10.905,15,11.25h0.625c0.345,0,0.625,0.28,0.625,0.625s-0.28,0.625-0.625,0.625h-1.693H13.93
	c-0.237,0-0.44,0.168-0.485,0.399c-0.044,0.232,0.082,0.464,0.302,0.552l1.72,0.688C16.24,14.45,16.686,15.27,16.528,16.087z
	 M20,14.375C20,17.477,17.476,20,14.375,20S8.75,17.477,8.75,14.375s2.523-5.625,5.625-5.625S20,11.273,20,14.375z M18.75,14.375
	c0-2.412-1.963-4.375-4.375-4.375S10,11.963,10,14.375s1.962,4.375,4.375,4.375S18.75,16.787,18.75,14.375z M8.125,16.875
	c0,0.345-0.28,0.625-0.625,0.625H3.125C1.402,17.5,0,16.098,0,14.375V3.125C0,1.402,1.402,0,3.125,0h11.25
	C16.097,0,17.5,1.402,17.5,3.125v3.75c0,0.345-0.28,0.625-0.625,0.625S16.25,7.22,16.25,6.875V5h-1.875
	C14.03,5,13.75,4.72,13.75,4.375s0.28-0.625,0.625-0.625h1.875V3.125c0-1.034-0.841-1.875-1.875-1.875H12.5v1.875
	C12.5,4.159,11.659,5,10.625,5H7.5v1.875c0,0.166-0.066,0.325-0.183,0.442l-1.25,1.25C5.945,8.689,5.785,8.75,5.625,8.75
	s-0.32-0.061-0.442-0.183l-1.25-1.25C3.816,7.2,3.75,7.041,3.75,6.875v-2.5c0-0.345,0.28-0.625,0.625-0.625h2.5h3.75
	c0.345,0,0.625-0.28,0.625-0.625V1.25H3.125c-1.034,0-1.875,0.841-1.875,1.875V3.75h0.625C2.22,3.75,2.5,4.03,2.5,4.375
	S2.22,5,1.875,5H1.25v8.75h5.625c0.345,0,0.625,0.28,0.625,0.625S7.22,15,6.875,15h-5.51c0.259,0.726,0.946,1.25,1.76,1.25H7.5
	C7.845,16.25,8.125,16.53,8.125,16.875z M6.25,5H5v1.616l0.625,0.625L6.25,6.616V5z"/>
</svg>
