<?xml version="1.0" encoding="utf-8"?>
<!-- Generator: Adobe Illustrator 25.3.1, SVG Export Plug-In . SVG Version: 6.00 Build 0)  -->
<svg version="1.1" id="Layer_1" xmlns="http://www.w3.org/2000/svg" xmlns:xlink="http://www.w3.org/1999/xlink" x="0px" y="0px"
	 viewBox="0 0 21.158 20.326" style="enable-background:new 0 0 21.158 20.326;" xml:space="preserve">
<style type="text/css">
	.st0{fill:#626E7C;}
</style>
<path class="st0" d="M21.145,18.824l-0.084,0.933c-0.028,0.325-0.302,0.569-0.621,0.569c-0.019,0-0.038-0.001-0.057-0.003
	c-0.344-0.03-0.598-0.334-0.566-0.678l0.084-0.935c0.086-0.938-0.55-1.797-1.479-2.001l-3.075-0.677
	c-0.286-0.063-0.49-0.317-0.49-0.61v-4.034c0-0.517-0.428-0.937-0.953-0.937c-0.526,0-0.954,0.42-0.954,0.937v6.917
	c0,0.236-0.133,0.452-0.344,0.559c-0.212,0.104-0.465,0.082-0.653-0.057l-1.244-0.923c-0.264-0.198-0.64-0.17-0.874,0.062
	c-0.233,0.23-0.259,0.587-0.062,0.848l0.399,0.525c0.208,0.275,0.155,0.667-0.12,0.876c-0.276,0.209-0.667,0.155-0.876-0.12
	l-0.399-0.526c-0.571-0.755-0.494-1.826,0.179-2.491c0.668-0.663,1.743-0.738,2.499-0.177l0.246,0.183v-5.675
	c0-1.206,0.988-2.187,2.204-2.187c1.215,0,2.203,0.981,2.203,2.187v3.532l2.584,0.568C20.233,15.828,21.289,17.261,21.145,18.824z
	 M7.56,14.672c-3.624-0.258-6.395-3.271-6.308-6.863c0.086-3.591,3-6.472,6.632-6.557c3.637-0.088,6.681,2.655,6.94,6.239
	c0.024,0.345,0.323,0.598,0.668,0.579c0.345-0.025,0.604-0.324,0.578-0.668c-0.307-4.25-3.891-7.503-8.215-7.399
	C3.554,0.104,0.105,3.52,0.002,7.779c-0.103,4.26,3.178,7.835,7.469,8.139c0.015,0.001,0.03,0.002,0.045,0.002
	c0.325,0,0.6-0.252,0.623-0.581C8.164,14.996,7.905,14.697,7.56,14.672z M8.039,11.895c0.345,0,0.625-0.28,0.625-0.625v-0.054
	c0.81-0.067,1.491-0.656,1.648-1.459c0.167-0.854-0.302-1.71-1.117-2.035L7.341,6.989C7.084,6.887,6.936,6.621,6.988,6.355
	C7.04,6.087,7.28,5.894,7.559,5.894h0h1.827c0.345,0,0.625-0.28,0.625-0.625s-0.28-0.625-0.625-0.625H8.664V4.602
	c0-0.345-0.28-0.625-0.625-0.625c-0.345,0-0.625,0.28-0.625,0.625v0.055C6.602,4.721,5.918,5.311,5.762,6.115
	C5.594,6.972,6.065,7.828,6.881,8.151l1.853,0.733c0.255,0.102,0.403,0.368,0.352,0.633C9.033,9.784,8.793,9.978,8.516,9.979H6.691
	c-0.345,0-0.625,0.28-0.625,0.625c0,0.345,0.28,0.625,0.625,0.625h0.723v0.041C7.414,11.615,7.694,11.895,8.039,11.895z"/>
</svg>
