<?xml version="1.0" encoding="utf-8"?>
<!-- Generator: Adobe Illustrator 25.3.1, SVG Export Plug-In . SVG Version: 6.00 Build 0)  -->
<svg version="1.1" id="Layer_1" xmlns="http://www.w3.org/2000/svg" xmlns:xlink="http://www.w3.org/1999/xlink" x="0px" y="0px"
	 viewBox="0 0 20.001 19.999" style="enable-background:new 0 0 20.001 19.999;" xml:space="preserve">
<style type="text/css">
	.st0{fill:#626E7C;}
</style>
<path class="st0" d="M19.615,15.794l-2.492-2.491l0.696-0.694c0.325-0.327,0.457-0.807,0.345-1.251
	c-0.113-0.447-0.456-0.807-0.898-0.94L9.82,8.184C9.36,8.048,8.858,8.172,8.515,8.513s-0.47,0.84-0.334,1.304
	c0,0.001,0,0.003,0.001,0.004l2.233,7.443c0.133,0.44,0.492,0.785,0.939,0.898c0.445,0.112,0.927-0.019,1.254-0.347l0.694-0.695
	l2.493,2.494c0.249,0.248,0.579,0.385,0.932,0.385s0.683-0.137,0.932-0.386l1.956-1.956c0.249-0.249,0.386-0.58,0.386-0.932
	C20.001,16.379,19.86,16.04,19.615,15.794z M9.462,9.382l7.444,2.233l0.106,0.033l-0.078,0.078l-1.138,1.134
	c-0.117,0.117-0.184,0.276-0.184,0.441c0,0.166,0.065,0.325,0.183,0.443l2.935,3.029l-2.05,1.956l-2.936-2.936
	c-0.118-0.117-0.276-0.183-0.442-0.183s-0.325,0.066-0.442,0.184l-1.137,1.138l-0.079,0.079l-0.033-0.108L9.379,9.462L9.462,9.382z
	 M9.374,18.147c-0.023,0.329-0.298,0.58-0.623,0.58c-0.015,0-0.03-0.001-0.045-0.002c-5-0.357-8.823-4.562-8.703-9.575
	c0.12-5.011,4.139-9.029,9.15-9.148c5.026-0.098,9.217,3.706,9.573,8.705c0.025,0.344-0.234,0.643-0.578,0.668
	c-0.337,0.02-0.644-0.234-0.668-0.579c-0.311-4.333-3.922-7.651-8.298-7.544C4.84,1.355,1.356,4.837,1.253,9.181
	c-0.104,4.343,3.209,7.988,7.542,8.298C9.139,17.503,9.398,17.802,9.374,18.147z M5.036,8.816c-0.254,1.971,0.855,3.869,2.698,4.615
	c0.32,0.129,0.475,0.493,0.345,0.813c-0.099,0.243-0.333,0.391-0.58,0.391c-0.078,0-0.158-0.015-0.234-0.046
	c-2.369-0.958-3.796-3.398-3.469-5.933c0.328-2.535,2.326-4.534,4.861-4.86c2.533-0.323,4.975,1.101,5.933,3.471
	c0.13,0.32-0.024,0.684-0.345,0.814c-0.322,0.127-0.685-0.025-0.813-0.345c-0.746-1.843-2.64-2.956-4.615-2.699
	C6.846,5.29,5.291,6.844,5.036,8.816z"/>
</svg>
