<?xml version="1.0" encoding="utf-8"?>
<!-- Generator: Adobe Illustrator 25.3.1, SVG Export Plug-In . SVG Version: 6.00 Build 0)  -->
<svg version="1.1" id="Layer_1" xmlns="http://www.w3.org/2000/svg" xmlns:xlink="http://www.w3.org/1999/xlink" x="0px" y="0px"
	 viewBox="0 0 20 19.25" style="enable-background:new 0 0 20 19.25;" xml:space="preserve">
<style type="text/css">
	.st0{fill:#626E7C;}
</style>
<path class="st0" d="M16.875,0H3.125C1.402,0,0,1.402,0,3.125v9.399c0,1.723,1.402,3.125,3.125,3.125h4.257L6.974,18H5.625
	C5.28,18,5,18.28,5,18.625s0.28,0.625,0.625,0.625H7.5h5h1.875c0.345,0,0.625-0.28,0.625-0.625S14.72,18,14.375,18h-1.349
	l-0.408-2.351h4.257c1.723,0,3.125-1.402,3.125-3.125V3.125C20,1.402,18.598,0,16.875,0z M11.757,18H8.243l0.408-2.351h2.699
	L11.757,18z M18.75,12.524c0,1.034-0.841,1.875-1.875,1.875h-5h-3.75h-5c-1.034,0-1.875-0.841-1.875-1.875V3.125
	c0-1.034,0.841-1.875,1.875-1.875h13.75c1.034,0,1.875,0.841,1.875,1.875V12.524z M15.625,3.6h-3.75
	c-0.345,0-0.625,0.28-0.625,0.625V6H8.125C7.78,6,7.5,6.28,7.5,6.625V8.4H5V4.225C5,3.88,4.72,3.6,4.375,3.6S3.75,3.88,3.75,4.225
	v4.8v2.4c0,0.345,0.28,0.625,0.625,0.625h3.75h3.75h3.75c0.345,0,0.625-0.28,0.625-0.625v-7.2C16.25,3.88,15.97,3.6,15.625,3.6z
	 M5,9.65h2.5v1.15H5V9.65z M8.75,9.025V7.25h2.5v3.55h-2.5V9.025z M15,10.8h-2.5V6.625V4.85H15V10.8z"/>
</svg>
